<svg width="54" height="54" viewBox="0 0 54 54" fill="none" xmlns="http://www.w3.org/2000/svg">
<path d="M54 27C54 41.9117 41.9117 54 27 54C12.0883 54 0 41.9117 0 27C0 12.0883 12.0883 0 27 0C41.9117 0 54 12.0883 54 27ZM23.8769 41.2963L43.9092 21.264C44.5894 20.5838 44.5894 19.4808 43.9092 18.8006L41.4458 16.3372C40.7655 15.6568 39.6626 15.6568 38.9822 16.3372L22.6452 32.6741L15.0178 25.0467C14.3375 24.3665 13.2346 24.3665 12.5542 25.0467L10.0908 27.5102C9.41059 28.1904 9.41059 29.2934 10.0908 29.9736L21.4134 41.2962C22.0937 41.9765 23.1966 41.9765 23.8769 41.2963Z" fill="#27AE60"/>
</svg>
